<svg width="1495" height="671" viewBox="0 0 1495 671" fill="none" xmlns="http://www.w3.org/2000/svg">
<rect width="1495" height="671" fill="white"/>
<rect x="124" y="150" width="280" height="280" rx="32" fill="#EB3434"/>
<path d="M177 390V277.5C177 229.175 216.175 190 264.5 190C312.825 190 352 229.175 352 277.5V390H177Z" fill="#F6CA59"/>
<path d="M538.528 252.048C541.771 252.56 544.715 253.883 547.36 256.016C550.091 258.149 552.224 260.795 553.76 263.952C555.381 267.109 556.192 270.48 556.192 274.064C556.192 278.587 555.04 282.683 552.736 286.352C550.432 289.936 547.061 292.795 542.624 294.928C538.272 296.976 533.109 298 527.136 298H493.856V208.784H525.856C531.915 208.784 537.077 209.808 541.344 211.856C545.611 213.819 548.811 216.507 550.944 219.92C553.077 223.333 554.144 227.173 554.144 231.44C554.144 236.731 552.693 241.125 549.792 244.624C546.976 248.037 543.221 250.512 538.528 252.048ZM505.504 247.312H525.088C530.549 247.312 534.773 246.032 537.76 243.472C540.747 240.912 542.24 237.371 542.24 232.848C542.24 228.325 540.747 224.784 537.76 222.224C534.773 219.664 530.464 218.384 524.832 218.384H505.504V247.312ZM526.112 288.4C531.915 288.4 536.437 287.035 539.68 284.304C542.923 281.573 544.544 277.776 544.544 272.912C544.544 267.963 542.837 264.08 539.424 261.264C536.011 258.363 531.445 256.912 525.728 256.912H505.504V288.4H526.112ZM636.356 260.24C636.356 262.459 636.228 264.805 635.972 267.28H579.908C580.335 274.192 582.681 279.611 586.948 283.536C591.3 287.376 596.548 289.296 602.692 289.296C607.727 289.296 611.908 288.144 615.236 285.84C618.649 283.451 621.039 280.293 622.404 276.368H634.948C633.071 283.109 629.316 288.613 623.684 292.88C618.052 297.061 611.055 299.152 602.692 299.152C596.036 299.152 590.063 297.659 584.772 294.672C579.567 291.685 575.471 287.461 572.484 282C569.497 276.453 568.004 270.053 568.004 262.8C568.004 255.547 569.455 249.189 572.356 243.728C575.257 238.267 579.311 234.085 584.516 231.184C589.807 228.197 595.865 226.704 602.692 226.704C609.348 226.704 615.236 228.155 620.356 231.056C625.476 233.957 629.401 237.968 632.132 243.088C634.948 248.123 636.356 253.84 636.356 260.24ZM624.324 257.808C624.324 253.371 623.343 249.573 621.38 246.416C619.417 243.173 616.729 240.741 613.316 239.12C609.988 237.413 606.276 236.56 602.18 236.56C596.292 236.56 591.257 238.437 587.076 242.192C582.98 245.947 580.633 251.152 580.036 257.808H624.324ZM740.768 208.784V218.256H716.448V298H704.8V218.256H680.352V208.784H740.768ZM789.922 226.576C795.213 226.576 799.991 227.728 804.258 230.032C808.525 232.251 811.853 235.621 814.242 240.144C816.717 244.667 817.954 250.171 817.954 256.656V298H806.434V258.32C806.434 251.323 804.685 245.989 801.186 242.32C797.687 238.565 792.909 236.688 786.85 236.688C780.706 236.688 775.799 238.608 772.13 242.448C768.546 246.288 766.754 251.877 766.754 259.216V298H755.106V203.28H766.754V237.84C769.058 234.256 772.215 231.483 776.226 229.52C780.322 227.557 784.887 226.576 789.922 226.576ZM842.997 216.464C840.778 216.464 838.901 215.696 837.365 214.16C835.829 212.624 835.061 210.747 835.061 208.528C835.061 206.309 835.829 204.432 837.365 202.896C838.901 201.36 840.778 200.592 842.997 200.592C845.13 200.592 846.922 201.36 848.373 202.896C849.909 204.432 850.677 206.309 850.677 208.528C850.677 210.747 849.909 212.624 848.373 214.16C846.922 215.696 845.13 216.464 842.997 216.464ZM848.629 227.856V298H836.981V227.856H848.629ZM880.129 239.248C882.177 235.237 885.078 232.123 888.833 229.904C892.673 227.685 897.324 226.576 902.785 226.576V238.608H899.713C886.657 238.608 880.129 245.691 880.129 259.856V298H868.481V227.856H880.129V239.248ZM944.775 237.456H930.055V298H918.407V237.456H909.319V227.856H918.407V222.864C918.407 215.013 920.412 209.296 924.423 205.712C928.519 202.043 935.047 200.208 944.007 200.208V209.936C938.887 209.936 935.26 210.96 933.127 213.008C931.079 214.971 930.055 218.256 930.055 222.864V227.856H944.775V237.456ZM972.564 237.456V278.8C972.564 282.213 973.289 284.645 974.74 286.096C976.191 287.461 978.708 288.144 982.292 288.144H990.868V298H980.372C973.887 298 969.023 296.507 965.78 293.52C962.537 290.533 960.916 285.627 960.916 278.8V237.456H951.828V227.856H960.916V210.192H972.564V227.856H990.868V237.456H972.564ZM1065.4 227.856L1023.16 331.024H1011.12L1024.95 297.232L996.661 227.856H1009.59L1031.61 284.688L1053.37 227.856H1065.4Z" fill="black"/>
<path d="M515.296 396.08H495.84L492.256 406H486.112L502.24 361.648H508.96L525.024 406H518.88L515.296 396.08ZM513.632 391.344L505.568 368.816L497.504 391.344H513.632ZM529.877 388.336C529.877 384.752 530.602 381.616 532.053 378.928C533.504 376.197 535.488 374.085 538.005 372.592C540.565 371.099 543.424 370.352 546.581 370.352C549.312 370.352 551.85 370.992 554.197 372.272C556.544 373.509 558.336 375.152 559.573 377.2V358.64H565.461V406H559.573V399.408C558.421 401.499 556.714 403.227 554.453 404.592C552.192 405.915 549.546 406.576 546.517 406.576C543.402 406.576 540.565 405.808 538.005 404.272C535.488 402.736 533.504 400.581 532.053 397.808C530.602 395.035 529.877 391.877 529.877 388.336ZM559.573 388.4C559.573 385.755 559.04 383.451 557.973 381.488C556.906 379.525 555.456 378.032 553.621 377.008C551.829 375.941 549.845 375.408 547.669 375.408C545.493 375.408 543.509 375.92 541.717 376.944C539.925 377.968 538.496 379.461 537.429 381.424C536.362 383.387 535.829 385.691 535.829 388.336C535.829 391.024 536.362 393.371 537.429 395.376C538.496 397.339 539.925 398.853 541.717 399.92C543.509 400.944 545.493 401.456 547.669 401.456C549.845 401.456 551.829 400.944 553.621 399.92C555.456 398.853 556.906 397.339 557.973 395.376C559.04 393.371 559.573 391.045 559.573 388.4ZM617.479 370.288C620.21 370.288 622.642 370.864 624.775 372.016C626.908 373.125 628.594 374.811 629.831 377.072C631.068 379.333 631.687 382.085 631.687 385.328V406H625.927V386.16C625.927 382.661 625.052 379.995 623.303 378.16C621.596 376.283 619.271 375.344 616.327 375.344C613.298 375.344 610.887 376.325 609.095 378.288C607.303 380.208 606.407 383.003 606.407 386.672V406H600.647V386.16C600.647 382.661 599.772 379.995 598.023 378.16C596.316 376.283 593.991 375.344 591.047 375.344C588.018 375.344 585.607 376.325 583.815 378.288C582.023 380.208 581.127 383.003 581.127 386.672V406H575.303V370.928H581.127V375.984C582.279 374.149 583.815 372.741 585.735 371.76C587.698 370.779 589.852 370.288 592.199 370.288C595.143 370.288 597.746 370.949 600.007 372.272C602.268 373.595 603.954 375.536 605.063 378.096C606.044 375.621 607.666 373.701 609.927 372.336C612.188 370.971 614.706 370.288 617.479 370.288ZM644.249 365.232C643.139 365.232 642.201 364.848 641.433 364.08C640.665 363.312 640.281 362.373 640.281 361.264C640.281 360.155 640.665 359.216 641.433 358.448C642.201 357.68 643.139 357.296 644.249 357.296C645.315 357.296 646.211 357.68 646.937 358.448C647.705 359.216 648.089 360.155 648.089 361.264C648.089 362.373 647.705 363.312 646.937 364.08C646.211 364.848 645.315 365.232 644.249 365.232ZM647.065 370.928V406H641.241V370.928H647.065ZM674.079 370.288C678.345 370.288 681.801 371.589 684.447 374.192C687.092 376.752 688.415 380.464 688.415 385.328V406H682.655V386.16C682.655 382.661 681.78 379.995 680.031 378.16C678.281 376.283 675.892 375.344 672.863 375.344C669.791 375.344 667.337 376.304 665.503 378.224C663.711 380.144 662.815 382.939 662.815 386.608V406H656.991V370.928H662.815V375.92C663.967 374.128 665.524 372.741 667.487 371.76C669.492 370.779 671.689 370.288 674.079 370.288ZM744.815 374.448C744.815 378.16 743.535 381.253 740.975 383.728C738.457 386.16 734.596 387.376 729.391 387.376H720.815V406H714.991V361.392H729.391C734.425 361.392 738.244 362.608 740.847 365.04C743.492 367.472 744.815 370.608 744.815 374.448ZM729.391 382.576C732.633 382.576 735.023 381.872 736.559 380.464C738.095 379.056 738.863 377.051 738.863 374.448C738.863 368.944 735.705 366.192 729.391 366.192H720.815V382.576H729.391ZM749.877 388.336C749.877 384.752 750.602 381.616 752.053 378.928C753.504 376.197 755.488 374.085 758.005 372.592C760.565 371.099 763.402 370.352 766.517 370.352C769.589 370.352 772.256 371.013 774.517 372.336C776.778 373.659 778.464 375.323 779.573 377.328V370.928H785.461V406H779.573V399.472C778.421 401.52 776.693 403.227 774.389 404.592C772.128 405.915 769.482 406.576 766.453 406.576C763.338 406.576 760.522 405.808 758.005 404.272C755.488 402.736 753.504 400.581 752.053 397.808C750.602 395.035 749.877 391.877 749.877 388.336ZM779.573 388.4C779.573 385.755 779.04 383.451 777.973 381.488C776.906 379.525 775.456 378.032 773.621 377.008C771.829 375.941 769.845 375.408 767.669 375.408C765.493 375.408 763.509 375.92 761.717 376.944C759.925 377.968 758.496 379.461 757.429 381.424C756.362 383.387 755.829 385.691 755.829 388.336C755.829 391.024 756.362 393.371 757.429 395.376C758.496 397.339 759.925 398.853 761.717 399.92C763.509 400.944 765.493 401.456 767.669 401.456C769.845 401.456 771.829 400.944 773.621 399.92C775.456 398.853 776.906 397.339 777.973 395.376C779.04 393.371 779.573 391.045 779.573 388.4ZM812.391 370.288C816.658 370.288 820.114 371.589 822.759 374.192C825.404 376.752 826.727 380.464 826.727 385.328V406H820.967V386.16C820.967 382.661 820.092 379.995 818.343 378.16C816.594 376.283 814.204 375.344 811.175 375.344C808.103 375.344 805.65 376.304 803.815 378.224C802.023 380.144 801.127 382.939 801.127 386.608V406H795.303V370.928H801.127V375.92C802.279 374.128 803.836 372.741 805.799 371.76C807.804 370.779 810.002 370.288 812.391 370.288ZM868.241 387.12C868.241 388.229 868.177 389.403 868.049 390.64H840.017C840.23 394.096 841.403 396.805 843.537 398.768C845.713 400.688 848.337 401.648 851.409 401.648C853.926 401.648 856.017 401.072 857.681 399.92C859.387 398.725 860.582 397.147 861.265 395.184H867.537C866.598 398.555 864.721 401.307 861.905 403.44C859.089 405.531 855.59 406.576 851.409 406.576C848.081 406.576 845.094 405.829 842.449 404.336C839.846 402.843 837.798 400.731 836.305 398C834.811 395.227 834.065 392.027 834.065 388.4C834.065 384.773 834.79 381.595 836.241 378.864C837.691 376.133 839.718 374.043 842.321 372.592C844.966 371.099 847.995 370.352 851.409 370.352C854.737 370.352 857.681 371.077 860.241 372.528C862.801 373.979 864.763 375.984 866.129 378.544C867.537 381.061 868.241 383.92 868.241 387.12ZM862.225 385.904C862.225 383.685 861.734 381.787 860.753 380.208C859.771 378.587 858.427 377.371 856.721 376.56C855.057 375.707 853.201 375.28 851.153 375.28C848.209 375.28 845.691 376.219 843.601 378.096C841.553 379.973 840.379 382.576 840.081 385.904H862.225ZM881.752 358.64V406H875.928V358.64H881.752Z" fill="#EF6161"/>
</svg>
