<svg width="1136" height="524" viewBox="0 0 1136 524" fill="none" xmlns="http://www.w3.org/2000/svg">
<g clip-path="url(#clip0_2604_4)">
<rect width="1136" height="524" fill="white"/>
<rect x="88" y="100" width="280" height="280" rx="32" fill="#EB3434"/>
<path d="M141 340V227.5C141 179.175 180.175 140 228.5 140C276.825 140 316 179.175 316 227.5V340H141Z" fill="#F6CA59"/>
<path d="M502.528 202.048C505.771 202.56 508.715 203.883 511.36 206.016C514.091 208.149 516.224 210.795 517.76 213.952C519.381 217.109 520.192 220.48 520.192 224.064C520.192 228.587 519.04 232.683 516.736 236.352C514.432 239.936 511.061 242.795 506.624 244.928C502.272 246.976 497.109 248 491.136 248H457.856V158.784H489.856C495.915 158.784 501.077 159.808 505.344 161.856C509.611 163.819 512.811 166.507 514.944 169.92C517.077 173.333 518.144 177.173 518.144 181.44C518.144 186.731 516.693 191.125 513.792 194.624C510.976 198.037 507.221 200.512 502.528 202.048ZM469.504 197.312H489.088C494.549 197.312 498.773 196.032 501.76 193.472C504.747 190.912 506.24 187.371 506.24 182.848C506.24 178.325 504.747 174.784 501.76 172.224C498.773 169.664 494.464 168.384 488.832 168.384H469.504V197.312ZM490.112 238.4C495.915 238.4 500.437 237.035 503.68 234.304C506.923 231.573 508.544 227.776 508.544 222.912C508.544 217.963 506.837 214.08 503.424 211.264C500.011 208.363 495.445 206.912 489.728 206.912H469.504V238.4H490.112ZM600.356 210.24C600.356 212.459 600.228 214.805 599.972 217.28H543.908C544.335 224.192 546.681 229.611 550.948 233.536C555.3 237.376 560.548 239.296 566.692 239.296C571.727 239.296 575.908 238.144 579.236 235.84C582.649 233.451 585.039 230.293 586.404 226.368H598.948C597.071 233.109 593.316 238.613 587.684 242.88C582.052 247.061 575.055 249.152 566.692 249.152C560.036 249.152 554.063 247.659 548.772 244.672C543.567 241.685 539.471 237.461 536.484 232C533.497 226.453 532.004 220.053 532.004 212.8C532.004 205.547 533.455 199.189 536.356 193.728C539.257 188.267 543.311 184.085 548.516 181.184C553.807 178.197 559.865 176.704 566.692 176.704C573.348 176.704 579.236 178.155 584.356 181.056C589.476 183.957 593.401 187.968 596.132 193.088C598.948 198.123 600.356 203.84 600.356 210.24ZM588.324 207.808C588.324 203.371 587.343 199.573 585.38 196.416C583.417 193.173 580.729 190.741 577.316 189.12C573.988 187.413 570.276 186.56 566.18 186.56C560.292 186.56 555.257 188.437 551.076 192.192C546.98 195.947 544.633 201.152 544.036 207.808H588.324ZM704.768 158.784V168.256H680.448V248H668.8V168.256H644.352V158.784H704.768ZM753.922 176.576C759.213 176.576 763.991 177.728 768.258 180.032C772.525 182.251 775.853 185.621 778.242 190.144C780.717 194.667 781.954 200.171 781.954 206.656V248H770.434V208.32C770.434 201.323 768.685 195.989 765.186 192.32C761.687 188.565 756.909 186.688 750.85 186.688C744.706 186.688 739.799 188.608 736.13 192.448C732.546 196.288 730.754 201.877 730.754 209.216V248H719.106V153.28H730.754V187.84C733.058 184.256 736.215 181.483 740.226 179.52C744.322 177.557 748.887 176.576 753.922 176.576ZM806.997 166.464C804.778 166.464 802.901 165.696 801.365 164.16C799.829 162.624 799.061 160.747 799.061 158.528C799.061 156.309 799.829 154.432 801.365 152.896C802.901 151.36 804.778 150.592 806.997 150.592C809.13 150.592 810.922 151.36 812.373 152.896C813.909 154.432 814.677 156.309 814.677 158.528C814.677 160.747 813.909 162.624 812.373 164.16C810.922 165.696 809.13 166.464 806.997 166.464ZM812.629 177.856V248H800.981V177.856H812.629ZM844.129 189.248C846.177 185.237 849.078 182.123 852.833 179.904C856.673 177.685 861.324 176.576 866.785 176.576V188.608H863.713C850.657 188.608 844.129 195.691 844.129 209.856V248H832.481V177.856H844.129V189.248ZM908.775 187.456H894.055V248H882.407V187.456H873.319V177.856H882.407V172.864C882.407 165.013 884.412 159.296 888.423 155.712C892.519 152.043 899.047 150.208 908.007 150.208V159.936C902.887 159.936 899.26 160.96 897.127 163.008C895.079 164.971 894.055 168.256 894.055 172.864V177.856H908.775V187.456ZM936.564 187.456V228.8C936.564 232.213 937.289 234.645 938.74 236.096C940.191 237.461 942.708 238.144 946.292 238.144H954.868V248H944.372C937.887 248 933.023 246.507 929.78 243.52C926.537 240.533 924.916 235.627 924.916 228.8V187.456H915.828V177.856H924.916V160.192H936.564V177.856H954.868V187.456H936.564ZM1029.4 177.856L987.157 281.024H975.125L988.949 247.232L960.661 177.856H973.589L995.605 234.688L1017.37 177.856H1029.4Z" fill="black"/>
<path d="M479.296 346.08H459.84L456.256 356H450.112L466.24 311.648H472.96L489.024 356H482.88L479.296 346.08ZM477.632 341.344L469.568 318.816L461.504 341.344H477.632ZM493.877 338.336C493.877 334.752 494.602 331.616 496.053 328.928C497.504 326.197 499.488 324.085 502.005 322.592C504.565 321.099 507.424 320.352 510.581 320.352C513.312 320.352 515.85 320.992 518.197 322.272C520.544 323.509 522.336 325.152 523.573 327.2V308.64H529.461V356H523.573V349.408C522.421 351.499 520.714 353.227 518.453 354.592C516.192 355.915 513.546 356.576 510.517 356.576C507.402 356.576 504.565 355.808 502.005 354.272C499.488 352.736 497.504 350.581 496.053 347.808C494.602 345.035 493.877 341.877 493.877 338.336ZM523.573 338.4C523.573 335.755 523.04 333.451 521.973 331.488C520.906 329.525 519.456 328.032 517.621 327.008C515.829 325.941 513.845 325.408 511.669 325.408C509.493 325.408 507.509 325.92 505.717 326.944C503.925 327.968 502.496 329.461 501.429 331.424C500.362 333.387 499.829 335.691 499.829 338.336C499.829 341.024 500.362 343.371 501.429 345.376C502.496 347.339 503.925 348.853 505.717 349.92C507.509 350.944 509.493 351.456 511.669 351.456C513.845 351.456 515.829 350.944 517.621 349.92C519.456 348.853 520.906 347.339 521.973 345.376C523.04 343.371 523.573 341.045 523.573 338.4ZM581.479 320.288C584.21 320.288 586.642 320.864 588.775 322.016C590.908 323.125 592.594 324.811 593.831 327.072C595.068 329.333 595.687 332.085 595.687 335.328V356H589.927V336.16C589.927 332.661 589.052 329.995 587.303 328.16C585.596 326.283 583.271 325.344 580.327 325.344C577.298 325.344 574.887 326.325 573.095 328.288C571.303 330.208 570.407 333.003 570.407 336.672V356H564.647V336.16C564.647 332.661 563.772 329.995 562.023 328.16C560.316 326.283 557.991 325.344 555.047 325.344C552.018 325.344 549.607 326.325 547.815 328.288C546.023 330.208 545.127 333.003 545.127 336.672V356H539.303V320.928H545.127V325.984C546.279 324.149 547.815 322.741 549.735 321.76C551.698 320.779 553.852 320.288 556.199 320.288C559.143 320.288 561.746 320.949 564.007 322.272C566.268 323.595 567.954 325.536 569.063 328.096C570.044 325.621 571.666 323.701 573.927 322.336C576.188 320.971 578.706 320.288 581.479 320.288ZM608.249 315.232C607.139 315.232 606.201 314.848 605.433 314.08C604.665 313.312 604.281 312.373 604.281 311.264C604.281 310.155 604.665 309.216 605.433 308.448C606.201 307.68 607.139 307.296 608.249 307.296C609.315 307.296 610.211 307.68 610.937 308.448C611.705 309.216 612.089 310.155 612.089 311.264C612.089 312.373 611.705 313.312 610.937 314.08C610.211 314.848 609.315 315.232 608.249 315.232ZM611.065 320.928V356H605.241V320.928H611.065ZM638.079 320.288C642.345 320.288 645.801 321.589 648.447 324.192C651.092 326.752 652.415 330.464 652.415 335.328V356H646.655V336.16C646.655 332.661 645.78 329.995 644.031 328.16C642.281 326.283 639.892 325.344 636.863 325.344C633.791 325.344 631.337 326.304 629.503 328.224C627.711 330.144 626.815 332.939 626.815 336.608V356H620.991V320.928H626.815V325.92C627.967 324.128 629.524 322.741 631.487 321.76C633.492 320.779 635.689 320.288 638.079 320.288ZM708.815 324.448C708.815 328.16 707.535 331.253 704.975 333.728C702.457 336.16 698.596 337.376 693.391 337.376H684.815V356H678.991V311.392H693.391C698.425 311.392 702.244 312.608 704.847 315.04C707.492 317.472 708.815 320.608 708.815 324.448ZM693.391 332.576C696.633 332.576 699.023 331.872 700.559 330.464C702.095 329.056 702.863 327.051 702.863 324.448C702.863 318.944 699.705 316.192 693.391 316.192H684.815V332.576H693.391ZM713.877 338.336C713.877 334.752 714.602 331.616 716.053 328.928C717.504 326.197 719.488 324.085 722.005 322.592C724.565 321.099 727.402 320.352 730.517 320.352C733.589 320.352 736.256 321.013 738.517 322.336C740.778 323.659 742.464 325.323 743.573 327.328V320.928H749.461V356H743.573V349.472C742.421 351.52 740.693 353.227 738.389 354.592C736.128 355.915 733.482 356.576 730.453 356.576C727.338 356.576 724.522 355.808 722.005 354.272C719.488 352.736 717.504 350.581 716.053 347.808C714.602 345.035 713.877 341.877 713.877 338.336ZM743.573 338.4C743.573 335.755 743.04 333.451 741.973 331.488C740.906 329.525 739.456 328.032 737.621 327.008C735.829 325.941 733.845 325.408 731.669 325.408C729.493 325.408 727.509 325.92 725.717 326.944C723.925 327.968 722.496 329.461 721.429 331.424C720.362 333.387 719.829 335.691 719.829 338.336C719.829 341.024 720.362 343.371 721.429 345.376C722.496 347.339 723.925 348.853 725.717 349.92C727.509 350.944 729.493 351.456 731.669 351.456C733.845 351.456 735.829 350.944 737.621 349.92C739.456 348.853 740.906 347.339 741.973 345.376C743.04 343.371 743.573 341.045 743.573 338.4ZM776.391 320.288C780.658 320.288 784.114 321.589 786.759 324.192C789.404 326.752 790.727 330.464 790.727 335.328V356H784.967V336.16C784.967 332.661 784.092 329.995 782.343 328.16C780.594 326.283 778.204 325.344 775.175 325.344C772.103 325.344 769.65 326.304 767.815 328.224C766.023 330.144 765.127 332.939 765.127 336.608V356H759.303V320.928H765.127V325.92C766.279 324.128 767.836 322.741 769.799 321.76C771.804 320.779 774.002 320.288 776.391 320.288ZM832.241 337.12C832.241 338.229 832.177 339.403 832.049 340.64H804.017C804.23 344.096 805.403 346.805 807.537 348.768C809.713 350.688 812.337 351.648 815.409 351.648C817.926 351.648 820.017 351.072 821.681 349.92C823.387 348.725 824.582 347.147 825.265 345.184H831.537C830.598 348.555 828.721 351.307 825.905 353.44C823.089 355.531 819.59 356.576 815.409 356.576C812.081 356.576 809.094 355.829 806.449 354.336C803.846 352.843 801.798 350.731 800.305 348C798.811 345.227 798.065 342.027 798.065 338.4C798.065 334.773 798.79 331.595 800.241 328.864C801.691 326.133 803.718 324.043 806.321 322.592C808.966 321.099 811.995 320.352 815.409 320.352C818.737 320.352 821.681 321.077 824.241 322.528C826.801 323.979 828.763 325.984 830.129 328.544C831.537 331.061 832.241 333.92 832.241 337.12ZM826.225 335.904C826.225 333.685 825.734 331.787 824.753 330.208C823.771 328.587 822.427 327.371 820.721 326.56C819.057 325.707 817.201 325.28 815.153 325.28C812.209 325.28 809.691 326.219 807.601 328.096C805.553 329.973 804.379 332.576 804.081 335.904H826.225ZM845.752 308.64V356H839.928V308.64H845.752Z" fill="#EF6161"/>
</g>
<defs>
<clipPath id="clip0_2604_4">
<rect width="1136" height="524" fill="white"/>
</clipPath>
</defs>
</svg>
