<svg width="1136" height="524" viewBox="0 0 1136 524" fill="none" xmlns="http://www.w3.org/2000/svg">
<g clip-path="url(#clip0_2604_4)">
<rect width="1136" height="524" fill="white"/>
<rect x="88" y="100" width="280" height="280" rx="32" fill="#EB3434"/>
<path d="M141 340V227.5C141 179.175 180.175 140 228.5 140C276.825 140 316 179.175 316 227.5V340H141Z" fill="#F6CA59"/>
<path d="M505.216 196.304C509.995 197.157 514.048 199.675 517.376 203.856C520.704 208.037 522.368 212.773 522.368 218.064C522.368 222.587 521.173 226.683 518.784 230.352C516.48 233.936 513.109 236.795 508.672 238.928C504.235 240.976 499.072 242 493.184 242H457.6V153.04H491.52C497.579 153.04 502.784 154.064 507.136 156.112C511.488 158.16 514.773 160.933 516.992 164.432C519.211 167.845 520.32 171.685 520.32 175.952C520.32 181.072 518.955 185.339 516.224 188.752C513.493 192.165 509.824 194.683 505.216 196.304ZM472.192 190.416H490.24C495.019 190.416 498.731 189.349 501.376 187.216C504.107 184.997 505.472 181.84 505.472 177.744C505.472 173.733 504.107 170.619 501.376 168.4C498.731 166.096 495.019 164.944 490.24 164.944H472.192V190.416ZM491.904 230.096C496.853 230.096 500.736 228.901 503.552 226.512C506.368 224.123 507.776 220.795 507.776 216.528C507.776 212.176 506.283 208.72 503.296 206.16C500.309 203.6 496.341 202.32 491.392 202.32H472.192V230.096H491.904ZM602.865 205.008C602.865 207.653 602.694 210.043 602.353 212.176H548.465C548.892 217.808 550.982 222.331 554.737 225.744C558.492 229.157 563.1 230.864 568.561 230.864C576.412 230.864 581.958 227.579 585.201 221.008H600.945C598.812 227.493 594.929 232.827 589.297 237.008C583.75 241.104 576.838 243.152 568.561 243.152C561.82 243.152 555.761 241.659 550.385 238.672C545.094 235.6 540.913 231.333 537.841 225.872C534.854 220.325 533.361 213.925 533.361 206.672C533.361 199.419 534.812 193.061 537.713 187.6C540.7 182.053 544.838 177.787 550.129 174.8C555.505 171.813 561.649 170.32 568.561 170.32C575.217 170.32 581.148 171.771 586.353 174.672C591.558 177.573 595.612 181.669 598.513 186.96C601.414 192.165 602.865 198.181 602.865 205.008ZM587.633 200.4C587.548 195.024 585.628 190.715 581.873 187.472C578.118 184.229 573.468 182.608 567.921 182.608C562.886 182.608 558.577 184.229 554.993 187.472C551.409 190.629 549.276 194.939 548.593 200.4H587.633ZM707.947 153.04V164.944H684.267V242H669.675V164.944H645.867V153.04H707.947ZM759.205 170.32C764.581 170.32 769.36 171.472 773.541 173.776C777.808 176.08 781.136 179.493 783.525 184.016C786 188.539 787.237 194 787.237 200.4V242H772.773V202.576C772.773 196.261 771.194 191.44 768.037 188.112C764.88 184.699 760.57 182.992 755.109 182.992C749.648 182.992 745.296 184.699 742.053 188.112C738.896 191.44 737.317 196.261 737.317 202.576V242H722.725V147.28H737.317V179.664C739.792 176.677 742.906 174.373 746.661 172.752C750.501 171.131 754.682 170.32 759.205 170.32ZM820.442 181.712C822.575 178.128 825.391 175.355 828.89 173.392C832.474 171.344 836.698 170.32 841.562 170.32V185.424H837.85C832.133 185.424 827.781 186.875 824.794 189.776C821.893 192.677 820.442 197.712 820.442 204.88V242H805.85V171.472H820.442V181.712ZM862.399 162.128C859.754 162.128 857.535 161.232 855.743 159.44C853.951 157.648 853.055 155.429 853.055 152.784C853.055 150.139 853.951 147.92 855.743 146.128C857.535 144.336 859.754 143.44 862.399 143.44C864.959 143.44 867.135 144.336 868.927 146.128C870.719 147.92 871.615 150.139 871.615 152.784C871.615 155.429 870.719 157.648 868.927 159.44C867.135 161.232 864.959 162.128 862.399 162.128ZM869.567 171.472V242H854.975V171.472H869.567ZM918.293 183.376H905.237V242H890.517V183.376H882.197V171.472H890.517V166.48C890.517 158.373 892.65 152.485 896.917 148.816C901.269 145.061 908.053 143.184 917.269 143.184V155.344C912.832 155.344 909.717 156.197 907.925 157.904C906.133 159.525 905.237 162.384 905.237 166.48V171.472H918.293V183.376ZM948.249 183.376V222.416C948.249 225.061 948.846 226.981 950.041 228.176C951.321 229.285 953.454 229.84 956.441 229.84H965.401V242H953.881C947.31 242 942.276 240.464 938.777 237.392C935.278 234.32 933.529 229.328 933.529 222.416V183.376H925.209V171.472H933.529V153.936H948.249V171.472H965.401V183.376H948.249ZM1042.34 171.472L999.074 275.152H983.97L998.306 240.848L970.53 171.472H986.786L1006.63 225.232L1027.23 171.472H1042.34Z" fill="black"/>
<path d="M479.616 346.912H460.992L457.792 356H450.176L466.112 311.456H474.56L490.496 356H482.816L479.616 346.912ZM477.568 340.96L470.336 320.288L463.04 340.96H477.568ZM494.993 338.208C494.993 334.667 495.718 331.531 497.169 328.8C498.662 326.069 500.668 323.957 503.185 322.464C505.745 320.928 508.582 320.16 511.697 320.16C514.001 320.16 516.262 320.672 518.481 321.696C520.742 322.677 522.534 324 523.857 325.664V308.64H531.217V356H523.857V350.688C522.662 352.395 520.998 353.803 518.865 354.912C516.774 356.021 514.364 356.576 511.633 356.576C508.561 356.576 505.745 355.808 503.185 354.272C500.668 352.693 498.662 350.517 497.169 347.744C495.718 344.928 494.993 341.749 494.993 338.208ZM523.857 338.336C523.857 335.904 523.345 333.792 522.321 332C521.34 330.208 520.038 328.843 518.417 327.904C516.796 326.965 515.046 326.496 513.169 326.496C511.292 326.496 509.542 326.965 507.921 327.904C506.3 328.8 504.977 330.144 503.953 331.936C502.972 333.685 502.481 335.776 502.481 338.208C502.481 340.64 502.972 342.773 503.953 344.608C504.977 346.443 506.3 347.851 507.921 348.832C509.585 349.771 511.334 350.24 513.169 350.24C515.046 350.24 516.796 349.771 518.417 348.832C520.038 347.893 521.34 346.528 522.321 344.736C523.345 342.901 523.857 340.768 523.857 338.336ZM583.488 320.16C586.261 320.16 588.736 320.736 590.912 321.888C593.131 323.04 594.859 324.747 596.096 327.008C597.376 329.269 598.016 332 598.016 335.2V356H590.784V336.288C590.784 333.131 589.995 330.72 588.416 329.056C586.837 327.349 584.683 326.496 581.952 326.496C579.221 326.496 577.045 327.349 575.424 329.056C573.845 330.72 573.056 333.131 573.056 336.288V356H565.824V336.288C565.824 333.131 565.035 330.72 563.456 329.056C561.877 327.349 559.723 326.496 556.992 326.496C554.261 326.496 552.085 327.349 550.464 329.056C548.885 330.72 548.096 333.131 548.096 336.288V356H540.8V320.736H548.096V324.768C549.291 323.317 550.805 322.187 552.64 321.376C554.475 320.565 556.437 320.16 558.528 320.16C561.344 320.16 563.861 320.757 566.08 321.952C568.299 323.147 570.005 324.875 571.2 327.136C572.267 325.003 573.931 323.317 576.192 322.08C578.453 320.8 580.885 320.16 583.488 320.16ZM611.012 316.064C609.689 316.064 608.58 315.616 607.684 314.72C606.788 313.824 606.34 312.715 606.34 311.392C606.34 310.069 606.788 308.96 607.684 308.064C608.58 307.168 609.689 306.72 611.012 306.72C612.292 306.72 613.38 307.168 614.276 308.064C615.172 308.96 615.62 310.069 615.62 311.392C615.62 312.715 615.172 313.824 614.276 314.72C613.38 315.616 612.292 316.064 611.012 316.064ZM614.596 320.736V356H607.3V320.736H614.596ZM641.967 320.16C644.74 320.16 647.215 320.736 649.391 321.888C651.61 323.04 653.338 324.747 654.575 327.008C655.812 329.269 656.431 332 656.431 335.2V356H649.199V336.288C649.199 333.131 648.41 330.72 646.831 329.056C645.252 327.349 643.098 326.496 640.367 326.496C637.636 326.496 635.46 327.349 633.839 329.056C632.26 330.72 631.471 333.131 631.471 336.288V356H624.175V320.736H631.471V324.768C632.666 323.317 634.18 322.187 636.015 321.376C637.892 320.565 639.876 320.16 641.967 320.16ZM713.467 324.768C713.467 327.029 712.933 329.163 711.867 331.168C710.8 333.173 709.093 334.816 706.747 336.096C704.4 337.333 701.392 337.952 697.723 337.952H689.659V356H682.363V311.52H697.723C701.136 311.52 704.016 312.117 706.363 313.312C708.752 314.464 710.523 316.043 711.675 318.048C712.869 320.053 713.467 322.293 713.467 324.768ZM697.723 332C700.496 332 702.565 331.381 703.931 330.144C705.296 328.864 705.979 327.072 705.979 324.768C705.979 319.904 703.227 317.472 697.723 317.472H689.659V332H697.723ZM717.993 338.208C717.993 334.667 718.718 331.531 720.169 328.8C721.662 326.069 723.668 323.957 726.185 322.464C728.745 320.928 731.561 320.16 734.633 320.16C737.406 320.16 739.817 320.715 741.865 321.824C743.956 322.891 745.62 324.235 746.857 325.856V320.736H754.217V356H746.857V350.752C745.62 352.416 743.934 353.803 741.801 354.912C739.668 356.021 737.236 356.576 734.505 356.576C731.476 356.576 728.702 355.808 726.185 354.272C723.668 352.693 721.662 350.517 720.169 347.744C718.718 344.928 717.993 341.749 717.993 338.208ZM746.857 338.336C746.857 335.904 746.345 333.792 745.321 332C744.34 330.208 743.038 328.843 741.417 327.904C739.796 326.965 738.046 326.496 736.169 326.496C734.292 326.496 732.542 326.965 730.921 327.904C729.3 328.8 727.977 330.144 726.953 331.936C725.972 333.685 725.481 335.776 725.481 338.208C725.481 340.64 725.972 342.773 726.953 344.608C727.977 346.443 729.3 347.851 730.921 348.832C732.585 349.771 734.334 350.24 736.169 350.24C738.046 350.24 739.796 349.771 741.417 348.832C743.038 347.893 744.34 346.528 745.321 344.736C746.345 342.901 746.857 340.768 746.857 338.336ZM781.592 320.16C784.365 320.16 786.84 320.736 789.016 321.888C791.235 323.04 792.963 324.747 794.2 327.008C795.437 329.269 796.056 332 796.056 335.2V356H788.824V336.288C788.824 333.131 788.035 330.72 786.456 329.056C784.877 327.349 782.723 326.496 779.992 326.496C777.261 326.496 775.085 327.349 773.464 329.056C771.885 330.72 771.096 333.131 771.096 336.288V356H763.8V320.736H771.096V324.768C772.291 323.317 773.805 322.187 775.64 321.376C777.517 320.565 779.501 320.16 781.592 320.16ZM837.683 337.504C837.683 338.827 837.597 340.021 837.427 341.088H810.483C810.696 343.904 811.741 346.165 813.619 347.872C815.496 349.579 817.8 350.432 820.531 350.432C824.456 350.432 827.229 348.789 828.851 345.504H836.722C835.656 348.747 833.715 351.413 830.899 353.504C828.125 355.552 824.669 356.576 820.531 356.576C817.16 356.576 814.131 355.829 811.443 354.336C808.797 352.8 806.707 350.667 805.171 347.936C803.677 345.163 802.931 341.963 802.931 338.336C802.931 334.709 803.656 331.531 805.107 328.8C806.6 326.027 808.669 323.893 811.315 322.4C814.003 320.907 817.075 320.16 820.531 320.16C823.859 320.16 826.824 320.885 829.427 322.336C832.029 323.787 834.056 325.835 835.507 328.48C836.957 331.083 837.683 334.091 837.683 337.504ZM830.067 335.2C830.024 332.512 829.064 330.357 827.187 328.736C825.309 327.115 822.984 326.304 820.211 326.304C817.693 326.304 815.539 327.115 813.747 328.736C811.955 330.315 810.888 332.469 810.547 335.2H830.067ZM852.159 308.64V356H844.863V308.64H852.159Z" fill="#EF6161"/>
</g>
<defs>
<clipPath id="clip0_2604_4">
<rect width="1136" height="524" fill="white"/>
</clipPath>
</defs>
</svg>
