<svg width="1136" height="406" viewBox="0 0 1136 406" fill="none" xmlns="http://www.w3.org/2000/svg">
<g clip-path="url(#clip0_2604_4)">
<rect width="1136" height="406" fill="white"/>
<path d="M507.52 196.176C512.555 197.115 516.693 199.632 519.936 203.728C523.179 207.824 524.8 212.517 524.8 217.808C524.8 222.587 523.605 226.811 521.216 230.48C518.912 234.064 515.541 236.88 511.104 238.928C506.667 240.976 501.419 242 495.36 242H456.832V152.656H493.696C499.755 152.656 504.96 153.637 509.312 155.6C513.749 157.563 517.077 160.293 519.296 163.792C521.6 167.291 522.752 171.259 522.752 175.696C522.752 180.901 521.344 185.253 518.528 188.752C515.797 192.251 512.128 194.725 507.52 196.176ZM474.752 189.52H491.136C495.403 189.52 498.688 188.581 500.992 186.704C503.296 184.741 504.448 181.968 504.448 178.384C504.448 174.8 503.296 172.027 500.992 170.064C498.688 168.101 495.403 167.12 491.136 167.12H474.752V189.52ZM492.8 227.408C497.152 227.408 500.523 226.384 502.912 224.336C505.387 222.288 506.624 219.387 506.624 215.632C506.624 211.792 505.344 208.805 502.784 206.672C500.224 204.453 496.768 203.344 492.416 203.344H474.752V227.408H492.8ZM605.002 205.008C605.002 207.568 604.831 209.872 604.49 211.92H552.65C553.077 217.04 554.869 221.051 558.026 223.952C561.183 226.853 565.066 228.304 569.674 228.304C576.33 228.304 581.066 225.445 583.882 219.728H603.21C601.162 226.555 597.237 232.187 591.434 236.624C585.631 240.976 578.506 243.152 570.058 243.152C563.231 243.152 557.087 241.659 551.626 238.672C546.25 235.6 542.026 231.291 538.954 225.744C535.967 220.197 534.474 213.797 534.474 206.544C534.474 199.205 535.967 192.763 538.954 187.216C541.941 181.669 546.122 177.403 551.498 174.416C556.874 171.429 563.061 169.936 570.058 169.936C576.799 169.936 582.815 171.387 588.106 174.288C593.482 177.189 597.621 181.328 600.522 186.704C603.509 191.995 605.002 198.096 605.002 205.008ZM586.442 199.888C586.357 195.28 584.693 191.611 581.45 188.88C578.207 186.064 574.239 184.656 569.546 184.656C565.109 184.656 561.354 186.021 558.282 188.752C555.295 191.397 553.461 195.109 552.778 199.888H586.442ZM709.382 152.656V167.12H685.574V242H667.654V167.12H643.846V152.656H709.382ZM762.393 170.064C767.769 170.064 772.548 171.259 776.729 173.648C780.91 175.952 784.153 179.408 786.457 184.016C788.846 188.539 790.041 194 790.041 200.4V242H772.121V202.832C772.121 197.2 770.713 192.891 767.897 189.904C765.081 186.832 761.241 185.296 756.377 185.296C751.428 185.296 747.502 186.832 744.601 189.904C741.785 192.891 740.377 197.2 740.377 202.832V242H722.457V147.28H740.377V179.92C742.681 176.848 745.753 174.459 749.593 172.752C753.433 170.96 757.7 170.064 762.393 170.064ZM825.002 182.096C827.306 178.341 830.293 175.397 833.962 173.264C837.717 171.131 841.983 170.064 846.762 170.064V188.88H842.026C836.394 188.88 832.127 190.203 829.226 192.848C826.41 195.493 825.002 200.101 825.002 206.672V242H807.082V171.088H825.002V182.096ZM867.92 162.64C864.763 162.64 862.117 161.659 859.984 159.696C857.936 157.648 856.912 155.131 856.912 152.144C856.912 149.157 857.936 146.683 859.984 144.72C862.117 142.672 864.763 141.648 867.92 141.648C871.077 141.648 873.68 142.672 875.728 144.72C877.861 146.683 878.928 149.157 878.928 152.144C878.928 155.131 877.861 157.648 875.728 159.696C873.68 161.659 871.077 162.64 867.92 162.64ZM876.752 171.088V242H858.832V171.088H876.752ZM926.969 185.808H914.553V242H896.377V185.808H888.313V171.088H896.377V167.504C896.377 158.8 898.852 152.4 903.801 148.304C908.75 144.208 916.217 142.288 926.201 142.544V157.648C921.849 157.563 918.82 158.288 917.113 159.824C915.406 161.36 914.553 164.133 914.553 168.144V171.088H926.969V185.808ZM959.446 185.808V220.112C959.446 222.501 960.001 224.251 961.11 225.36C962.305 226.384 964.267 226.896 966.998 226.896H975.318V242H964.054C948.95 242 941.398 234.661 941.398 219.984V185.808H932.95V171.088H941.398V153.552H959.446V171.088H975.318V185.808H959.446ZM1056.05 171.088L1012.14 275.536H993.071L1008.43 240.208L980.015 171.088H1000.11L1018.42 220.624L1036.98 171.088H1056.05Z" fill="black"/>
<path d="M479.616 346.912H460.992L457.792 356H450.176L466.112 311.456H474.56L490.496 356H482.816L479.616 346.912ZM477.568 340.96L470.336 320.288L463.04 340.96H477.568ZM494.993 338.208C494.993 334.667 495.718 331.531 497.169 328.8C498.662 326.069 500.668 323.957 503.185 322.464C505.745 320.928 508.582 320.16 511.697 320.16C514.001 320.16 516.262 320.672 518.481 321.696C520.742 322.677 522.534 324 523.857 325.664V308.64H531.217V356H523.857V350.688C522.662 352.395 520.998 353.803 518.865 354.912C516.774 356.021 514.364 356.576 511.633 356.576C508.561 356.576 505.745 355.808 503.185 354.272C500.668 352.693 498.662 350.517 497.169 347.744C495.718 344.928 494.993 341.749 494.993 338.208ZM523.857 338.336C523.857 335.904 523.345 333.792 522.321 332C521.34 330.208 520.038 328.843 518.417 327.904C516.796 326.965 515.046 326.496 513.169 326.496C511.292 326.496 509.542 326.965 507.921 327.904C506.3 328.8 504.977 330.144 503.953 331.936C502.972 333.685 502.481 335.776 502.481 338.208C502.481 340.64 502.972 342.773 503.953 344.608C504.977 346.443 506.3 347.851 507.921 348.832C509.585 349.771 511.334 350.24 513.169 350.24C515.046 350.24 516.796 349.771 518.417 348.832C520.038 347.893 521.34 346.528 522.321 344.736C523.345 342.901 523.857 340.768 523.857 338.336ZM583.488 320.16C586.261 320.16 588.736 320.736 590.912 321.888C593.131 323.04 594.859 324.747 596.096 327.008C597.376 329.269 598.016 332 598.016 335.2V356H590.784V336.288C590.784 333.131 589.995 330.72 588.416 329.056C586.837 327.349 584.683 326.496 581.952 326.496C579.221 326.496 577.045 327.349 575.424 329.056C573.845 330.72 573.056 333.131 573.056 336.288V356H565.824V336.288C565.824 333.131 565.035 330.72 563.456 329.056C561.877 327.349 559.723 326.496 556.992 326.496C554.261 326.496 552.085 327.349 550.464 329.056C548.885 330.72 548.096 333.131 548.096 336.288V356H540.8V320.736H548.096V324.768C549.291 323.317 550.805 322.187 552.64 321.376C554.475 320.565 556.437 320.16 558.528 320.16C561.344 320.16 563.861 320.757 566.08 321.952C568.299 323.147 570.005 324.875 571.2 327.136C572.267 325.003 573.931 323.317 576.192 322.08C578.453 320.8 580.885 320.16 583.488 320.16ZM611.012 316.064C609.689 316.064 608.58 315.616 607.684 314.72C606.788 313.824 606.34 312.715 606.34 311.392C606.34 310.069 606.788 308.96 607.684 308.064C608.58 307.168 609.689 306.72 611.012 306.72C612.292 306.72 613.38 307.168 614.276 308.064C615.172 308.96 615.62 310.069 615.62 311.392C615.62 312.715 615.172 313.824 614.276 314.72C613.38 315.616 612.292 316.064 611.012 316.064ZM614.596 320.736V356H607.3V320.736H614.596ZM641.967 320.16C644.74 320.16 647.215 320.736 649.391 321.888C651.61 323.04 653.338 324.747 654.575 327.008C655.812 329.269 656.431 332 656.431 335.2V356H649.199V336.288C649.199 333.131 648.41 330.72 646.831 329.056C645.252 327.349 643.098 326.496 640.367 326.496C637.636 326.496 635.46 327.349 633.839 329.056C632.26 330.72 631.471 333.131 631.471 336.288V356H624.175V320.736H631.471V324.768C632.666 323.317 634.18 322.187 636.015 321.376C637.892 320.565 639.876 320.16 641.967 320.16ZM713.467 324.768C713.467 327.029 712.933 329.163 711.867 331.168C710.8 333.173 709.093 334.816 706.747 336.096C704.4 337.333 701.392 337.952 697.723 337.952H689.659V356H682.363V311.52H697.723C701.136 311.52 704.016 312.117 706.363 313.312C708.752 314.464 710.523 316.043 711.675 318.048C712.869 320.053 713.467 322.293 713.467 324.768ZM697.723 332C700.496 332 702.565 331.381 703.931 330.144C705.296 328.864 705.979 327.072 705.979 324.768C705.979 319.904 703.227 317.472 697.723 317.472H689.659V332H697.723ZM717.993 338.208C717.993 334.667 718.718 331.531 720.169 328.8C721.662 326.069 723.668 323.957 726.185 322.464C728.745 320.928 731.561 320.16 734.633 320.16C737.406 320.16 739.817 320.715 741.865 321.824C743.956 322.891 745.62 324.235 746.857 325.856V320.736H754.217V356H746.857V350.752C745.62 352.416 743.934 353.803 741.801 354.912C739.668 356.021 737.236 356.576 734.505 356.576C731.476 356.576 728.702 355.808 726.185 354.272C723.668 352.693 721.662 350.517 720.169 347.744C718.718 344.928 717.993 341.749 717.993 338.208ZM746.857 338.336C746.857 335.904 746.345 333.792 745.321 332C744.34 330.208 743.038 328.843 741.417 327.904C739.796 326.965 738.046 326.496 736.169 326.496C734.292 326.496 732.542 326.965 730.921 327.904C729.3 328.8 727.977 330.144 726.953 331.936C725.972 333.685 725.481 335.776 725.481 338.208C725.481 340.64 725.972 342.773 726.953 344.608C727.977 346.443 729.3 347.851 730.921 348.832C732.585 349.771 734.334 350.24 736.169 350.24C738.046 350.24 739.796 349.771 741.417 348.832C743.038 347.893 744.34 346.528 745.321 344.736C746.345 342.901 746.857 340.768 746.857 338.336ZM781.592 320.16C784.365 320.16 786.84 320.736 789.016 321.888C791.235 323.04 792.963 324.747 794.2 327.008C795.437 329.269 796.056 332 796.056 335.2V356H788.824V336.288C788.824 333.131 788.035 330.72 786.456 329.056C784.877 327.349 782.723 326.496 779.992 326.496C777.261 326.496 775.085 327.349 773.464 329.056C771.885 330.72 771.096 333.131 771.096 336.288V356H763.8V320.736H771.096V324.768C772.291 323.317 773.805 322.187 775.64 321.376C777.517 320.565 779.501 320.16 781.592 320.16ZM837.683 337.504C837.683 338.827 837.597 340.021 837.427 341.088H810.483C810.696 343.904 811.741 346.165 813.619 347.872C815.496 349.579 817.8 350.432 820.531 350.432C824.456 350.432 827.229 348.789 828.851 345.504H836.722C835.656 348.747 833.715 351.413 830.899 353.504C828.125 355.552 824.669 356.576 820.531 356.576C817.16 356.576 814.131 355.829 811.443 354.336C808.797 352.8 806.707 350.667 805.171 347.936C803.677 345.163 802.931 341.963 802.931 338.336C802.931 334.709 803.656 331.531 805.107 328.8C806.6 326.027 808.669 323.893 811.315 322.4C814.003 320.907 817.075 320.16 820.531 320.16C823.859 320.16 826.824 320.885 829.427 322.336C832.029 323.787 834.056 325.835 835.507 328.48C836.957 331.083 837.683 334.091 837.683 337.504ZM830.067 335.2C830.024 332.512 829.064 330.357 827.187 328.736C825.309 327.115 822.984 326.304 820.211 326.304C817.693 326.304 815.539 327.115 813.747 328.736C811.955 330.315 810.888 332.469 810.547 335.2H830.067ZM852.159 308.64V356H844.863V308.64H852.159Z" fill="#EF6161"/>
<rect x="86" y="101" width="280" height="280" rx="32" fill="#EB3434"/>
<path d="M139 341V228.5C139 180.175 178.175 141 226.5 141C274.825 141 314 180.175 314 228.5V341H139Z" fill="#F6CA59"/>
</g>
<defs>
<clipPath id="clip0_2604_4">
<rect width="1136" height="406" fill="white"/>
</clipPath>
</defs>
</svg>
